<!DOCTYPE svg PUBLIC "-//W3C//DTD SVG 1.1//EN" "http://www.w3.org/Graphics/SVG/1.1/DTD/svg11.dtd">
<!-- Uploaded to: SVG Repo, www.svgrepo.com, Transformed by: SVG Repo Mixer Tools -->
<svg fill="#000000" width="800px" height="800px" viewBox="0 0 24 24" id="direction-sign" data-name="Line Color" xmlns="http://www.w3.org/2000/svg" class="icon line-color">
<g id="SVGRepo_bgCarrier" stroke-width="0"/>
<g id="SVGRepo_tracerCarrier" stroke-linecap="round" stroke-linejoin="round"/>
<g id="SVGRepo_iconCarrier">
<path id="secondary" d="M20.75,8.33l-.9-1A1,1,0,0,0,19.11,7H14v4h5.11a1,1,0,0,0,.74-.33l.9-1A1,1,0,0,0,20.75,8.33ZM3.25,11.67l.9,1a1,1,0,0,0,.74.33H10V9H4.89a1,1,0,0,0-.74.33l-.9,1A1,1,0,0,0,3.25,11.67Z" style="fill: none; stroke: #CDE9DF; stroke-linecap: round; stroke-linejoin: round; stroke-width: 2;"/>
<path id="primary" d="M14,21H10V4a1,1,0,0,1,1-1h2a1,1,0,0,1,1,1ZM8,21h8" style="fill: none; stroke: #CDE9DF; stroke-linecap: round; stroke-linejoin: round; stroke-width: 2;"/>
</g>
</svg>