<?xml version="1.0" standalone="no"?>
<!DOCTYPE svg PUBLIC "-//W3C//DTD SVG 20010904//EN"
 "http://www.w3.org/TR/2001/REC-SVG-20010904/DTD/svg10.dtd">
<svg version="1.0" xmlns="http://www.w3.org/2000/svg"
 width="1589.000000pt" height="623.000000pt" viewBox="0 0 1589.000000 623.000000"
 preserveAspectRatio="xMidYMid meet">

<g transform="translate(0.000000,623.000000) scale(0.100000,-0.100000)"
fill="#000000" stroke="none">
<path d="M14190 3080 l0 -1070 225 0 225 0 2 356 3 355 229 -355 228 -356 264
0 c145 0 264 2 264 5 0 5 -270 381 -471 656 l-77 106 254 332 c140 182 254
333 254 336 0 3 -118 5 -262 5 l-263 -1 -210 -327 -210 -328 -5 676 -5 675
-222 3 -223 2 0 -1070z"/>
<path d="M11762 4121 c-60 -21 -113 -67 -138 -119 -23 -49 -21 -139 5 -189
101 -200 440 -162 480 54 15 79 -3 139 -58 194 -74 75 -181 97 -289 60z"/>
<path d="M4900 3020 l0 -1010 230 0 230 0 0 410 0 410 415 0 415 0 0 -410 0
-410 230 0 230 0 0 1010 0 1010 -230 0 -230 0 0 -400 0 -400 -415 0 -415 0 0
400 0 400 -230 0 -230 0 0 -1010z"/>
<path d="M10210 3020 l0 -1010 600 0 600 0 0 185 0 185 -372 2 -373 3 -3 823
-2 822 -225 0 -225 0 0 -1010z"/>
<path d="M7572 3480 c-147 -27 -281 -97 -382 -200 -155 -159 -218 -346 -207
-615 9 -224 61 -358 187 -486 152 -153 323 -208 614 -196 157 6 254 24 369 69
l77 29 0 160 c0 87 -2 159 -4 159 -2 0 -37 -16 -78 -35 -216 -99 -505 -91
-633 18 -39 32 -82 118 -91 180 l-6 47 472 0 473 0 -6 158 c-3 89 -13 189 -22
232 -53 238 -217 412 -438 465 -78 19 -255 27 -325 15z m206 -305 c98 -29 149
-102 159 -226 l6 -69 -262 0 c-296 0 -274 -7 -247 85 29 95 117 191 196 213
51 15 90 14 148 -3z"/>
<path d="M9052 3479 c-97 -13 -284 -61 -350 -89 l-52 -22 0 -170 0 -170 25 16
c14 9 35 23 48 31 41 26 164 73 238 90 41 9 117 17 171 17 85 1 103 -2 150
-25 30 -15 63 -41 75 -59 22 -32 51 -133 42 -143 -3 -2 -106 -18 -230 -35
-123 -17 -251 -38 -284 -46 -205 -53 -335 -183 -366 -368 -39 -232 71 -437
271 -503 85 -28 275 -25 352 6 86 33 147 79 203 149 l50 63 3 -105 3 -106 210
0 211 0 -5 503 c-3 422 -7 512 -20 564 -55 211 -178 335 -382 388 -75 20 -267
27 -363 14z m345 -879 c-11 -175 -88 -274 -233 -301 -159 -29 -276 83 -234
224 16 55 65 100 131 120 55 17 232 44 303 46 l39 1 -6 -90z"/>
<path d="M13221 3470 c-115 -31 -199 -88 -283 -193 l-38 -49 0 111 0 111 -225
0 -225 0 0 -720 0 -720 225 0 225 0 0 449 c0 527 -1 521 90 612 48 49 64 58
113 69 123 25 224 -27 269 -138 23 -56 23 -63 26 -524 l3 -468 220 0 220 0 -4
538 c-3 586 -3 581 -65 712 -33 71 -117 155 -184 184 -109 48 -246 57 -367 26z"/>
<path d="M11630 2730 l0 -720 225 0 225 0 0 720 0 720 -225 0 -225 0 0 -720z"/>
</g>
</svg>
